<svg xmlns="http://www.w3.org/2000/svg" width="1800" height="1050" viewBox="0 0 1800 1050" role="img" aria-labelledby="title desc">
<title id="title">SNAPKITTYWEST Inverted Monorepo</title>
<desc id="desc">A high-detail architectural README hero showing constellation-wide contracts flowing inward toward an active repository, governed by Claude Architect and Codex Production Agda Engineer.</desc>
<defs>
  <linearGradient id="bg" x1="0" y1="0" x2="1" y2="1"><stop offset="0" stop-color="#04050a"/><stop offset=".48" stop-color="#090d18"/><stop offset="1" stop-color="#020308"/></linearGradient>
  <radialGradient id="core" cx="50%" cy="50%" r="62%"><stop offset="0" stop-color="#ffffff"/><stop offset=".08" stop-color="#bafcff"/><stop offset=".24" stop-color="#39e7ff"/><stop offset=".48" stop-color="#6958ff"/><stop offset=".72" stop-color="#15152e"/><stop offset="1" stop-color="#05060c" stop-opacity="0"/></radialGradient>
  <linearGradient id="gold" x1="0" y1="0" x2="1" y2="1"><stop offset="0" stop-color="#fff0a8"/><stop offset=".45" stop-color="#d8a83f"/><stop offset="1" stop-color="#76541a"/></linearGradient>
  <filter id="glow" x="-100%" y="-100%" width="300%" height="300%"><feGaussianBlur stdDeviation="8" result="b"/><feMerge><feMergeNode in="b"/><feMergeNode in="SourceGraphic"/></feMerge></filter>
  <filter id="shadow" x="-40%" y="-40%" width="180%" height="180%"><feDropShadow dx="0" dy="16" stdDeviation="20" flood-color="#000" flood-opacity=".65"/></filter>
  <pattern id="grid" width="36" height="36" patternUnits="userSpaceOnUse"><path d="M36 0H0V36" fill="none" stroke="#4a5878" stroke-opacity=".12" stroke-width="1"/></pattern>
  <marker id="arrowC" markerWidth="10" markerHeight="10" refX="8.5" refY="5" orient="auto"><path d="M0 0L10 5L0 10Z" fill="#65f7ff"/></marker>
  <marker id="arrowM" markerWidth="10" markerHeight="10" refX="8.5" refY="5" orient="auto"><path d="M0 0L10 5L0 10Z" fill="#ff4fd8"/></marker>
  <symbol id="repo" viewBox="0 0 160 88"><rect x="1" y="1" width="158" height="86" rx="16" fill="#0d1320" stroke="#4d607b" stroke-width="2"/><path d="M22 30H62L72 40H138V67H22Z" fill="#121b2a" stroke="#6deefa" stroke-width="2"/><circle cx="26" cy="18" r="3" fill="#65f7ff"/><circle cx="38" cy="18" r="3" fill="#ff4fd8"/><circle cx="50" cy="18" r="3" fill="#d7a945"/></symbol>
</defs>
<rect width="1800" height="1050" fill="url(#bg)"/><rect width="1800" height="1050" fill="url(#grid)"/>
<rect x="34" y="34" width="1732" height="982" rx="28" fill="none" stroke="#21324b" stroke-width="2"/><rect x="50" y="50" width="1700" height="950" rx="22" fill="none" stroke="#65f7ff" stroke-opacity=".14"/>
<text x="86" y="112" fill="#d9fbff" font-family="monospace" font-size="22" letter-spacing="5">SNAPKITTYWEST // ARCHITECTURE DIRECTIVE</text>
<text x="86" y="185" fill="#ffffff" font-family="Arial,Helvetica,sans-serif" font-size="72" font-weight="800" letter-spacing="-2">THE INVERTED MONOREPO</text>
<text x="88" y="232" fill="#8fa8c7" font-family="monospace" font-size="23" letter-spacing="2">ONE LOGICAL SYSTEM · MANY PHYSICAL REPOSITORIES · GLOBAL CONTRACTS FLOW INWARD</text>

<g filter="url(#shadow)"><rect x="80" y="295" width="380" height="520" rx="24" fill="#09111e" stroke="#2fdfff" stroke-width="2"/><rect x="98" y="313" width="344" height="72" rx="14" fill="#0b1827" stroke="#65f7ff" stroke-opacity=".4"/><text x="120" y="347" fill="#65f7ff" font-family="monospace" font-size="18" letter-spacing="3">CLAUDE</text><text x="120" y="373" fill="#fff" font-family="Arial" font-size="24" font-weight="700">ARCHITECT</text><text x="120" y="430" fill="#8fa8c7" font-family="monospace" font-size="16">AUTHORITY</text><text x="120" y="459" fill="#d9fbff" font-family="Arial" font-size="19">System boundaries</text><text x="120" y="488" fill="#d9fbff" font-family="Arial" font-size="19">Invariant discovery</text><text x="120" y="517" fill="#d9fbff" font-family="Arial" font-size="19">Root-cause resolution</text><text x="120" y="546" fill="#d9fbff" font-family="Arial" font-size="19">Cross-repo contracts</text><line x1="120" y1="579" x2="420" y2="579" stroke="#21324b"/><text x="120" y="615" fill="#8fa8c7" font-family="monospace" font-size="16">PROTOCOL</text><text x="120" y="650" fill="#65f7ff" font-family="monospace" font-size="17">01 OBSERVE</text><text x="120" y="680" fill="#65f7ff" font-family="monospace" font-size="17">02 BOUND</text><text x="120" y="710" fill="#65f7ff" font-family="monospace" font-size="17">03 FALSIFY</text><text x="120" y="740" fill="#65f7ff" font-family="monospace" font-size="17">04 RESOLVE</text><text x="120" y="770" fill="#65f7ff" font-family="monospace" font-size="17">05 SPECIFY</text></g>

<g filter="url(#shadow)"><rect x="1340" y="295" width="380" height="520" rx="24" fill="#120b1b" stroke="#ff4fd8" stroke-width="2"/><rect x="1358" y="313" width="344" height="72" rx="14" fill="#1a0e24" stroke="#ff4fd8" stroke-opacity=".4"/><text x="1380" y="347" fill="#ff4fd8" font-family="monospace" font-size="18" letter-spacing="3">CODEX</text><text x="1380" y="373" fill="#fff" font-family="Arial" font-size="24" font-weight="700">PRODUCTION AGDA</text><text x="1380" y="430" fill="#b59bc5" font-family="monospace" font-size="16">AUTHORITY</text><text x="1380" y="459" fill="#ffe8fb" font-family="Arial" font-size="19">Implementation</text><text x="1380" y="488" fill="#ffe8fb" font-family="Arial" font-size="19">Total proof construction</text><text x="1380" y="517" fill="#ffe8fb" font-family="Arial" font-size="19">Production hardening</text><text x="1380" y="546" fill="#ffe8fb" font-family="Arial" font-size="19">Validation receipts</text><line x1="1380" y1="579" x2="1680" y2="579" stroke="#3b2148"/><text x="1380" y="615" fill="#b59bc5" font-family="monospace" font-size="16">PROTOCOL</text><text x="1380" y="650" fill="#ff4fd8" font-family="monospace" font-size="17">01 INSPECT</text><text x="1380" y="680" fill="#ff4fd8" font-family="monospace" font-size="17">02 RECONCILE</text><text x="1380" y="710" fill="#ff4fd8" font-family="monospace" font-size="17">03 IMPLEMENT</text><text x="1380" y="740" fill="#ff4fd8" font-family="monospace" font-size="17">04 PROVE</text><text x="1380" y="770" fill="#ff4fd8" font-family="monospace" font-size="17">05 VALIDATE</text></g>

<g><g transform="translate(500 292)"><use href="#repo" width="150" height="82"/><text x="75" y="52" text-anchor="middle" fill="#d8faff" font-family="monospace" font-size="13">PROTOCOLS</text></g><g transform="translate(680 255)"><use href="#repo" width="150" height="82"/><text x="75" y="52" text-anchor="middle" fill="#d8faff" font-family="monospace" font-size="13">PROOFS</text></g><g transform="translate(970 255)"><use href="#repo" width="150" height="82"/><text x="75" y="52" text-anchor="middle" fill="#ffdff9" font-family="monospace" font-size="13">RUNTIMES</text></g><g transform="translate(1150 292)"><use href="#repo" width="150" height="82"/><text x="75" y="52" text-anchor="middle" fill="#ffdff9" font-family="monospace" font-size="13">RECEIPTS</text></g><g transform="translate(500 715)"><use href="#repo" width="150" height="82"/><text x="75" y="52" text-anchor="middle" fill="#d8faff" font-family="monospace" font-size="13">SCHEMAS</text></g><g transform="translate(680 752)"><use href="#repo" width="150" height="82"/><text x="75" y="52" text-anchor="middle" fill="#d8faff" font-family="monospace" font-size="13">CI GATES</text></g><g transform="translate(970 752)"><use href="#repo" width="150" height="82"/><text x="75" y="52" text-anchor="middle" fill="#ffdff9" font-family="monospace" font-size="13">AGENTS</text></g><g transform="translate(1150 715)"><use href="#repo" width="150" height="82"/><text x="75" y="52" text-anchor="middle" fill="#ffdff9" font-family="monospace" font-size="13">LEDGERS</text></g></g>

<g fill="none" stroke-width="3" opacity=".95"><path d="M650 333C760 355 785 420 845 478" stroke="#65f7ff" marker-end="url(#arrowC)"/><path d="M830 296C860 365 865 405 882 476" stroke="#65f7ff" marker-end="url(#arrowC)"/><path d="M1040 296C995 360 965 410 930 477" stroke="#ff4fd8" marker-end="url(#arrowM)"/><path d="M1150 334C1055 360 1010 425 955 485" stroke="#ff4fd8" marker-end="url(#arrowM)"/><path d="M650 756C760 730 790 650 846 580" stroke="#65f7ff" marker-end="url(#arrowC)"/><path d="M830 792C862 720 870 655 883 581" stroke="#65f7ff" marker-end="url(#arrowC)"/><path d="M1040 792C1000 716 970 648 932 580" stroke="#ff4fd8" marker-end="url(#arrowM)"/><path d="M1150 756C1055 730 1015 650 954 575" stroke="#ff4fd8" marker-end="url(#arrowM)"/></g>

<g transform="translate(900 530)"><circle r="250" fill="url(#core)" opacity=".34" filter="url(#glow)"/><circle r="176" fill="#050812" stroke="#304e73" stroke-width="2"/><circle r="148" fill="none" stroke="#65f7ff" stroke-opacity=".35" stroke-width="2" stroke-dasharray="8 10"/><circle r="121" fill="none" stroke="#ff4fd8" stroke-opacity=".35" stroke-width="2" stroke-dasharray="5 8"/><path d="M-120 0A120 120 0 0 1 120 0" fill="none" stroke="#65f7ff" stroke-width="5"/><path d="M120 0A120 120 0 0 1-120 0" fill="none" stroke="#ff4fd8" stroke-width="5"/><circle r="86" fill="#090f1a" stroke="url(#gold)" stroke-width="4"/><path d="M-34-17L-45-48L-15-36Q0-44 15-36L45-48L34-17Q44 0 38 22Q29 47 0 51Q-29 47-38 22Q-44 0-34-17Z" fill="#0f1726" stroke="#d8a83f" stroke-width="3"/><circle cx="-14" cy="5" r="5" fill="#65f7ff"/><circle cx="14" cy="5" r="5" fill="#ff4fd8"/><path d="M-8 23Q0 30 8 23" fill="none" stroke="#fff7d6" stroke-width="3" stroke-linecap="round"/><text x="0" y="196" text-anchor="middle" fill="#fff" font-family="Arial" font-size="24" font-weight="800">ACTIVE REPOSITORY</text><text x="0" y="224" text-anchor="middle" fill="#93a8c4" font-family="monospace" font-size="15" letter-spacing="2">LOCAL EXECUTION SURFACE</text></g>

<path d="M460 560C560 560 610 540 700 535" fill="none" stroke="#65f7ff" stroke-width="4" marker-end="url(#arrowC)" filter="url(#glow)"/><path d="M1340 560C1240 560 1190 540 1100 535" fill="none" stroke="#ff4fd8" stroke-width="4" marker-end="url(#arrowM)" filter="url(#glow)"/>
<g><rect x="655" y="875" width="490" height="68" rx="14" fill="#090d15" stroke="#d8a83f" stroke-opacity=".65"/><text x="900" y="904" text-anchor="middle" fill="#d8a83f" font-family="monospace" font-size="15" letter-spacing="3">INVERSION LAW</text><text x="900" y="928" text-anchor="middle" fill="#f7efd1" font-family="Arial" font-size="18">GLOBAL INVARIANTS → LOCAL IMPLEMENTATION → VERIFIED RECEIPTS</text></g>
<text x="86" y="972" fill="#6f829e" font-family="monospace" font-size="15" letter-spacing="2">NO ASSUMPTIONS · NO LOCAL-ONLY CORRECTNESS · NO UNVERIFIED COMPLETION</text><text x="1714" y="972" text-anchor="end" fill="#d8a83f" font-family="monospace" font-size="15" letter-spacing="2">EVIDENCE OR SILENCE</text>
</svg>
